<?xml version="1.0" encoding="UTF-8" standalone="no"?>
<!DOCTYPE svg PUBLIC "-//W3C//DTD SVG 1.1//EN" "http://www.w3.org/Graphics/SVG/1.1/DTD/svg11.dtd">
<svg version="1.1" xmlns="http://www.w3.org/2000/svg" xmlns:xlink="http://www.w3.org/1999/xlink" preserveAspectRatio="xMidYMid meet" viewBox="0 0 640 640" width="640" height="640"><defs><path d="M600 320C600 474.53 474.54 600 320 600C165.46 600 40 474.53 40 320C40 165.46 165.46 40 320 40C474.54 40 600 165.46 600 320Z" id="b5OGW1pO6"/><path d="M460 330C460 357.6 437.6 380 410 380C382.41 380 360 357.6 360 330C360 302.41 382.41 280 410 280C437.6 280 460 302.41 460 330Z" id="aN17lxM83"/><path d="M280 330C280 357.6 257.6 380 230 380C202.41 380 180 357.6 180 330C180 302.41 202.41 280 230 280C257.6 280 280 302.41 280 330Z" id="b9t6otuOV"/><path d="M640 320C640 347.89 617.35 370.54 589.46 370.54C561.57 370.54 538.92 347.89 538.92 320C538.92 292.11 561.57 269.46 589.46 269.46C617.35 269.46 640 292.11 640 320Z" id="e1G4xbBo5c"/><path d="M101.08 320C101.08 347.89 78.43 370.54 50.54 370.54C22.65 370.54 0 347.89 0 320C0 292.11 22.65 269.46 50.54 269.46C78.43 269.46 101.08 292.11 101.08 320Z" id="a31z31a09"/><path d="M320 76.49L320 14.46" id="f1juG74Z55"/><path d="M360 80.49L360 18.46" id="d1TTC5SXUC"/><path d="M400 86.49L400 24.46" id="a31XhG7F8g"/><path d="M280 80.49L280 18.46" id="b9i1bu4Jnd"/><path d="M240 86.49L240 24.46" id="c1ASYpoPgi"/></defs><g><g><use xlink:href="#b5OGW1pO6" opacity="1" fill="#f5d53c" fill-opacity="1"/></g><g><use xlink:href="#aN17lxM83" opacity="1" fill="#a75a1e" fill-opacity="1"/></g><g><use xlink:href="#b9t6otuOV" opacity="1" fill="#a75a1e" fill-opacity="1"/></g><g><use xlink:href="#e1G4xbBo5c" opacity="1" fill="#f5d53c" fill-opacity="1"/></g><g><use xlink:href="#a31z31a09" opacity="1" fill="#f5d53c" fill-opacity="1"/></g><g><use xlink:href="#f1juG74Z55" opacity="1" fill="#a75a1e" fill-opacity="0"/><g><use xlink:href="#f1juG74Z55" opacity="1" fill-opacity="0" stroke="#a75a1e" stroke-width="16" stroke-opacity="1"/></g></g><g><use xlink:href="#d1TTC5SXUC" opacity="1" fill="#a75a1e" fill-opacity="0"/><g><use xlink:href="#d1TTC5SXUC" opacity="1" fill-opacity="0" stroke="#a75a1e" stroke-width="16" stroke-opacity="1"/></g></g><g><use xlink:href="#a31XhG7F8g" opacity="1" fill="#a75a1e" fill-opacity="0"/><g><use xlink:href="#a31XhG7F8g" opacity="1" fill-opacity="0" stroke="#a75a1e" stroke-width="16" stroke-opacity="1"/></g></g><g><use xlink:href="#b9i1bu4Jnd" opacity="1" fill="#a75a1e" fill-opacity="0"/><g><use xlink:href="#b9i1bu4Jnd" opacity="1" fill-opacity="0" stroke="#a75a1e" stroke-width="16" stroke-opacity="1"/></g></g><g><use xlink:href="#c1ASYpoPgi" opacity="1" fill="#a75a1e" fill-opacity="0"/><g><use xlink:href="#c1ASYpoPgi" opacity="1" fill-opacity="0" stroke="#a75a1e" stroke-width="16" stroke-opacity="1"/></g></g></g></svg>