<svg version="1" xmlns="http://www.w3.org/2000/svg" width="933.333" height="933.333" viewBox="0 0 700.000000 700.000000"><path d="M343 16.2c-1.8.6-1.9 1.8-1.8 13.7.1 7.2 0 13.3-.3 13.5-.2.2-5.3.7-11.4 1-6 .4-11.8.9-12.7 1.2-1.7.5-1.8-.6-1.8-12.5v-13l-8.7.2-8.8.2v13.4c0 10.9-.3 13.5-1.5 14.2-.8.4-6.2 1.8-11.8 2.9-5.7 1.2-11 2.4-11.8 2.7-1.1.4-1.3-1.7-1.2-12.6.1-7.2-.1-13.3-.5-13.7-.7-.7-15.8-.6-16.6.1-.2.3-.4 7.5-.4 16.1 0 13.5-.2 15.6-1.6 16.1-1.7.5-1.7.5-14.1 5.3-75 29.1-138.4 90.6-169.8 165-7.9 18.7-16.4 46.2-18.7 60.6l-.6 4.2-6.7 1.7c-16.6 4.1-29.2 14.5-36.7 30-4.3 9.1-5.5 15-5 26 .9 23.7 16.5 43.5 39.7 50.6 3.3 1 6.5 1.7 7.1 1.6 1-.2 2.2 3.2 3.2 8.8 2.3 13.7 11.4 42.6 18 57 12.8 28 22.6 44.8 38.3 65.4 7.2 9.4 7.3 9.6 11.6 14.3 53.8 60.4 120.4 95.3 199.1 104.3 24.9 2.8 49.8 2.2 80-2 30.8-4.2 69.9-17.6 99.9-34.1 8.5-4.7 27.6-16.8 31.1-19.6.6-.5 3.3-2.5 6-4.5 7.8-5.7 24.2-20.1 32.3-28.3 6.5-6.6 9.8-10.2 19.3-21 6.6-7.6 14-18.2 26.4-37.5 4.3-6.6 13.6-24.5 17.4-33.5 1.8-4.1 3.9-8.9 4.6-10.5 4.3-9.7 14.2-43.3 15.9-54.1.8-4.5.7-4.4 4-5 16.5-3 32.7-15.3 39.9-30.4 4.5-9.6 5.6-14.9 5.2-26.3-.5-16.8-7-29.5-21.5-41.8-4-3.4-13.3-7.7-20.3-9.5l-6.5-1.6-1.2-6.1c-7.6-39.9-26.6-83.1-52-118.3-3-4.2-6.2-8.4-7-9.4-.8-1-3.3-3.9-5.5-6.6-13.7-16.7-34.7-36.7-52-49.5-3.3-2.4-6.1-4.7-6.3-5.2-.2-.4-.8-.7-1.2-.7-.5 0-3.7-2-7.2-4.4-18.1-12.5-49.8-28.2-69.3-34.3l-3-1-.1-15.7c-.1-8.6-.5-16-.8-16.3-.3-.3-4.2-.6-8.6-.7l-8-.1-.1 5c0 2.7-.1 9-.1 13.8 0 7.7-.2 8.7-1.7 8.2-.9-.3-5.9-1.4-11.1-2.5-5.2-1.1-10.4-2.2-11.5-2.5-1.9-.4-2-1.2-2-14.5l.1-14-8.8.1-8.8.1v13c0 11.9-.1 12.9-1.7 12.4-1-.3-6.7-.8-12.8-1.1-6-.4-11.2-.9-11.4-1.1-.3-.2-.4-6.5-.3-13.9.1-12.1 0-13.5-1.6-13.6-8.1-.4-12.6-.3-14.2.3z"/></svg>